<svg xmlns="http://www.w3.org/2000/svg" width="36" height="27" viewBox="0 0 36 27">
  <g id="diagram-3" transform="translate(0 -4.5)">
    <path id="Path_38" data-name="Path 38" d="M0,25.875A3.375,3.375,0,0,1,3.375,22.5h2.25A3.375,3.375,0,0,1,9,25.875v2.25A3.375,3.375,0,0,1,5.625,31.5H3.375A3.375,3.375,0,0,1,0,28.125ZM3.375,24.75A1.125,1.125,0,0,0,2.25,25.875v2.25A1.125,1.125,0,0,0,3.375,29.25h2.25A1.125,1.125,0,0,0,6.75,28.125v-2.25A1.125,1.125,0,0,0,5.625,24.75ZM13.5,25.875A3.375,3.375,0,0,1,16.875,22.5h2.25A3.375,3.375,0,0,1,22.5,25.875v2.25A3.375,3.375,0,0,1,19.125,31.5h-2.25A3.375,3.375,0,0,1,13.5,28.125Zm3.375-1.125a1.125,1.125,0,0,0-1.125,1.125v2.25a1.125,1.125,0,0,0,1.125,1.125h2.25a1.125,1.125,0,0,0,1.125-1.125v-2.25a1.125,1.125,0,0,0-1.125-1.125ZM27,25.875A3.375,3.375,0,0,1,30.375,22.5h2.25A3.375,3.375,0,0,1,36,25.875v2.25A3.375,3.375,0,0,1,32.625,31.5h-2.25A3.375,3.375,0,0,1,27,28.125Zm3.375-1.125a1.125,1.125,0,0,0-1.125,1.125v2.25a1.125,1.125,0,0,0,1.125,1.125h2.25a1.125,1.125,0,0,0,1.125-1.125v-2.25a1.125,1.125,0,0,0-1.125-1.125ZM13.5,7.875A3.375,3.375,0,0,1,16.875,4.5h2.25A3.375,3.375,0,0,1,22.5,7.875v2.25A3.375,3.375,0,0,1,19.125,13.5h-2.25A3.375,3.375,0,0,1,13.5,10.125ZM16.875,6.75A1.125,1.125,0,0,0,15.75,7.875v2.25a1.125,1.125,0,0,0,1.125,1.125h2.25a1.125,1.125,0,0,0,1.125-1.125V7.875A1.125,1.125,0,0,0,19.125,6.75Z" fill="#aba8e0" fill-rule="evenodd"/>
    <path id="Path_39" data-name="Path 39" d="M18,11.25a1.125,1.125,0,0,1,1.125,1.125V15.75H31.5a1.125,1.125,0,0,1,1.125,1.125v2.25a1.125,1.125,0,0,1-2.25,0V18H19.125v1.125a1.125,1.125,0,0,1-2.25,0V18H5.625v1.125a1.125,1.125,0,0,1-2.25,0v-2.25A1.125,1.125,0,0,1,4.5,15.75H16.875V12.375A1.125,1.125,0,0,1,18,11.25Z" fill="#aba8e0" fill-rule="evenodd"/>
  </g>
</svg>
