<svg xmlns="http://www.w3.org/2000/svg" width="33.753" height="31.034" viewBox="0 0 33.753 31.034">
  <g id="Group_1" data-name="Group 1" transform="translate(9 -1373)">
    <g id="wifi-outline" transform="translate(-4.982 1377.784)">
      <path id="Path_32" data-name="Path 32" d="M19.276,21.059a5,5,0,0,0-6.647,0" transform="translate(-3.093 -4.626)" fill="none" stroke="#aba8e0" stroke-linecap="round" stroke-linejoin="round" stroke-width="2.25"/>
      <path id="Path_33" data-name="Path 33" d="M20.293,16.091a8.754,8.754,0,0,0-11.958,0" transform="translate(-1.455 -2.313)" fill="none" stroke="#aba8e0" stroke-linecap="round" stroke-linejoin="round" stroke-width="2.25"/>
      <path id="Path_34" data-name="Path 34" d="M21.2,10.845a12.527,12.527,0,0,0-16.679,0" fill="none" stroke="#aba8e0" stroke-linecap="round" stroke-linejoin="round" stroke-width="2.25"/>
      <path id="Path_35" data-name="Path 35" d="M17.142,27.534a1.392,1.392,0,1,1,1.392-1.392A1.392,1.392,0,0,1,17.142,27.534Z" transform="translate(-4.283 -6.515)" fill="#aba8e0"/>
    </g>
    <g id="house" transform="translate(-10.123 1370.284)">
      <path id="Path_36" data-name="Path 36" d="M4.5,30.375V15.75H6.75V30.375A1.125,1.125,0,0,0,7.875,31.5h20.25a1.125,1.125,0,0,0,1.125-1.125V15.75H31.5V30.375a3.375,3.375,0,0,1-3.375,3.375H7.875A3.375,3.375,0,0,1,4.5,30.375ZM29.25,5.625V13.5L24.75,9V5.625A1.125,1.125,0,0,1,25.875,4.5h2.25A1.125,1.125,0,0,1,29.25,5.625Z" fill="#aba8e0" fill-rule="evenodd"/>
      <path id="Path_37" data-name="Path 37" d="M16.409,3.375a2.25,2.25,0,0,1,3.181,0L34.546,18.329a1.126,1.126,0,1,1-1.593,1.593L18,4.966,3.046,19.921a1.126,1.126,0,0,1-1.593-1.593Z" fill="#aba8e0" fill-rule="evenodd"/>
    </g>
  </g>
</svg>
